<svg xmlns="http://www.w3.org/2000/svg" viewBox="0 0 571.54 260.89"><defs><style>.cls-1{fill:#23b6ea;}.cls-2,.cls-4,.cls-9{fill:#fff;}.cls-3{fill:#003a5a;}.cls-4{font-size:28.04px;}.cls-4,.cls-9{font-family:Quasimoda-Bold, Quasimoda;font-weight:700;}.cls-5{letter-spacing:-0.11em;}.cls-6{letter-spacing:0.01em;}.cls-7{letter-spacing:0em;}.cls-8{letter-spacing:0em;}.cls-9{font-size:64.09px;}.cls-10{letter-spacing:0.01em;}.cls-11{letter-spacing:0em;}.cls-12{letter-spacing:0em;}.cls-13{letter-spacing:0em;}</style></defs><title>Asset 4</title><g id="Layer_2" data-name="Layer 2"><g id="Layer_2-2" data-name="Layer 2"><path class="cls-1" d="M264.55,171.62a.74.74,0,0,1-.75-.75V126.31H219a.75.75,0,0,1-.75-.75V66.64a.76.76,0,0,1,.75-.75H263.8V20.75a.75.75,0,0,1,.75-.75h23.14a.76.76,0,0,1,.75.75v12a.76.76,0,0,1-.75.75H276.87v134h4.69a.74.74,0,0,1,.75.75v2.62a.74.74,0,0,1-.75.75Z"/><path class="cls-2" d="M287.69,20.75v12H276.12V168.25h5.44v2.62h-17V125.56H219V66.64h45.51V20.75h23.14m0-1.5H264.55a1.5,1.5,0,0,0-1.5,1.5V65.14H219a1.5,1.5,0,0,0-1.5,1.5v58.92a1.5,1.5,0,0,0,1.5,1.5h44v43.81a1.5,1.5,0,0,0,1.5,1.5h17a1.5,1.5,0,0,0,1.5-1.5v-2.62a1.5,1.5,0,0,0-1.5-1.5h-3.94V34.21h10.07a1.5,1.5,0,0,0,1.5-1.5v-12a1.5,1.5,0,0,0-1.5-1.5Z"/><path class="cls-3" d="M287.69,191.85a.7.7,0,0,1-.38-.11.74.74,0,0,1-.37-.64V1.5a.73.73,0,0,1,.36-.64.77.77,0,0,1,.39-.11.73.73,0,0,1,.35.09l36.55,19.25a.74.74,0,0,1,.4.66V65.89h43.79a.76.76,0,0,1,.75.75v58.92a.75.75,0,0,1-.75.75H325v44.56a.74.74,0,0,1-.38.66l-36.56,20.22A.78.78,0,0,1,287.69,191.85Z"/><path class="cls-2" d="M287.69,1.5l36.55,19.25V66.64h44.54v58.92H324.24v45.31L287.69,191.1V1.5m0-1.5a1.46,1.46,0,0,0-.78.22,1.48,1.48,0,0,0-.72,1.28V191.1a1.49,1.49,0,0,0,2.22,1.31L325,172.19a1.51,1.51,0,0,0,.77-1.32V127.06h43a1.5,1.5,0,0,0,1.5-1.5V66.64a1.5,1.5,0,0,0-1.5-1.5h-43V20.75a1.49,1.49,0,0,0-.8-1.33L288.39.17a1.57,1.57,0,0,0-.7-.17Z"/><text class="cls-4" transform="translate(0 170.91)"><tspan class="cls-5">T</tspan><tspan x="14.36" y="0">op Cl</tspan><tspan class="cls-6" x="84.79" y="0">a</tspan><tspan x="99.51" y="0">ss </tspan><tspan class="cls-7" x="131.89" y="0">M</tspan><tspan class="cls-8" x="157.41" y="0">edical</tspan></text><text class="cls-9" transform="translate(0 243.01)">Open <tspan class="cls-10" x="184.7" y="0">G</tspan><tspan class="cls-11" x="237.83" y="0">a</tspan><tspan class="cls-12" x="270.52" y="0">te</tspan><tspan x="330.63" y="0">s </tspan><tspan class="cls-13" x="376.77" y="0">M</tspan><tspan x="435.09" y="0">onth</tspan></text></g></g></svg>