<svg xmlns="http://www.w3.org/2000/svg" viewBox="0 0 109.62 138"><defs><style>.cls-1{fill:#23b6ea;}.cls-2{fill:#fff;}.cls-3{fill:#003a5a;}</style></defs><title>Asset 13</title><g id="Layer_2" data-name="Layer 2"><g id="Layer_2-2" data-name="Layer 2"><path class="cls-1" d="M33.9,122.85a.76.76,0,0,1-.75-.75V90.59H1.5a.76.76,0,0,1-.75-.75v-42a.76.76,0,0,1,.75-.75H33.15V15.21a.75.75,0,0,1,.75-.75H50.38a.75.75,0,0,1,.75.75v8.51a.75.75,0,0,1-.75.75H42.89v95H46a.76.76,0,0,1,.75.75v1.87a.76.76,0,0,1-.75.75Z"/><path class="cls-2" d="M50.38,15.21v8.51H42.14v96.51H46v1.87H33.9V89.84H1.5v-42H33.9V15.21H50.38m0-1.5H33.9a1.5,1.5,0,0,0-1.5,1.5V46.38H1.5A1.5,1.5,0,0,0,0,47.88v42a1.5,1.5,0,0,0,1.5,1.5H32.4V122.1a1.5,1.5,0,0,0,1.5,1.5H46a1.5,1.5,0,0,0,1.5-1.5v-1.87a1.5,1.5,0,0,0-1.5-1.5H43.64V25.22h6.74a1.5,1.5,0,0,0,1.5-1.5V15.21a1.5,1.5,0,0,0-1.5-1.5Z"/><path class="cls-3" d="M50.38,137.25a.83.83,0,0,1-.38-.1.76.76,0,0,1-.37-.65V1.5A.73.73,0,0,1,50,.86a.77.77,0,0,1,.39-.11.73.73,0,0,1,.35.09l26,13.7a.77.77,0,0,1,.4.67V47.13h31a.76.76,0,0,1,.75.75v42a.76.76,0,0,1-.75.75h-31V122.1a.77.77,0,0,1-.39.66l-26,14.4A.77.77,0,0,1,50.38,137.25Z"/><path class="cls-2" d="M50.38,1.5l26,13.71V47.88h31.71v42H76.41V122.1l-26,14.4V1.5m0-1.5a1.46,1.46,0,0,0-.78.22,1.48,1.48,0,0,0-.72,1.28v135a1.49,1.49,0,0,0,.74,1.29,1.45,1.45,0,0,0,.76.21,1.41,1.41,0,0,0,.72-.19l26-14.4a1.49,1.49,0,0,0,.78-1.31V91.34h30.21a1.5,1.5,0,0,0,1.5-1.5v-42a1.51,1.51,0,0,0-1.5-1.5H77.91V15.21a1.51,1.51,0,0,0-.8-1.33L51.08.17a1.57,1.57,0,0,0-.7-.17Z"/></g></g></svg>