<svg xmlns="http://www.w3.org/2000/svg" xmlns:xlink="http://www.w3.org/1999/xlink" viewBox="0 0 1318.08 1734"><defs><style>.cls-1{fill:none;}.cls-2{isolation:isolate;}.cls-3{clip-path:url(#clip-path);}.cls-4{opacity:0.86;mix-blend-mode:overlay;}.cls-5{fill:#6bcbed;}</style><clipPath id="clip-path" transform="translate(-861.96)"><rect class="cls-1" y="194" width="1921" height="1733"/></clipPath></defs><title>Asset 2</title><g class="cls-2"><g id="Layer_2" data-name="Layer 2"><g id="Layer_2-2" data-name="Layer 2"><g class="cls-3"><g class="cls-4"><polygon class="cls-5" points="604.26 274.74 604.26 169.47 400.56 169.47 400.56 573.45 0 573.45 0 1092.13 400.56 1092.13 400.56 1570 550.34 1570 550.34 1467.86 502.41 1467.86 502.41 274.74 604.26 274.74"/><polygon class="cls-5" points="1318.08 565.55 925.96 565.55 925.96 167.13 604.04 0 604.04 1734 925.96 1558.43 925.96 1077.08 1318.08 1077.08 1318.08 565.55"/></g></g><g class="cls-4"><polygon class="cls-5" points="636.04 520.92 635.29 459.42 516.29 460.88 519.18 696.86 285.2 699.73 288.91 1002.7 522.89 999.84 525.75 1232.82 613.24 1231.75 613.08 1218.25 585.08 1218.59 576.54 521.64 636.04 520.92"/><polygon class="cls-5" points="1055.14 690.3 826.16 693.1 823.27 457.12 634.07 360.43 646.01 1335.36 832.73 1229.06 829.87 996.08 1058.86 993.27 1055.14 690.3"/></g></g></g></g></svg>