<svg xmlns="http://www.w3.org/2000/svg" viewBox="0 0 353.72 57.02"><defs><style>.cls-1{fill:#fff;}</style></defs><title>Asset 3</title><g id="Layer_2" data-name="Layer 2"><g id="Layer_2-2" data-name="Layer 2"><polygon class="cls-1" points="330.07 9.1 330.07 5.61 323.33 5.61 323.33 19 310.06 19 310.06 36.18 323.33 36.18 323.33 49.39 328.29 49.39 328.29 48.62 326.7 48.62 326.7 9.1 330.07 9.1"/><polygon class="cls-1" points="353.72 19 340.74 19 340.74 5.61 330.07 0 330.07 55.29 340.74 49.39 340.74 36.18 353.72 36.18 353.72 19"/><path class="cls-1" d="M0,28.26V23.68H21.53v4.58H13.32V49.17H8.21V28.26Z"/><path class="cls-1" d="M19.4,41.07c0-5,3.89-8.75,9.18-8.75s9.15,3.78,9.15,8.75a8.79,8.79,0,0,1-9.15,8.78C23.33,49.85,19.4,46,19.4,41.07Zm13.54,0a4.38,4.38,0,1,0-8.75,0,4.38,4.38,0,1,0,8.75,0Z"/><path class="cls-1" d="M41.47,33h4.72v2.66a6.83,6.83,0,0,1,5.9-3.35c4.14,0,7.06,3.32,7.06,8.64s-3.1,8.89-7.35,8.89a6.52,6.52,0,0,1-5.61-3.2c0,1.51.07,3.35.07,5.15V57H41.47Zm12.89,8c0-2.91-1.48-4.67-4-4.67s-4.25,2-4.25,4.75,1.73,4.68,4.21,4.68S54.36,44,54.36,41Z"/><path class="cls-1" d="M72.47,36.43A13,13,0,0,1,85.86,23c5.07,0,9.14,2.16,11.55,6.59L93.67,32,93,31.82a7.5,7.5,0,0,0-7-4.07c-4.61,0-8.1,3.6-8.1,8.68s3.56,8.67,8.17,8.67a7.48,7.48,0,0,0,7-4l.62-.14,3.7,2.37a12.54,12.54,0,0,1-11.59,6.55A13,13,0,0,1,72.47,36.43Z"/><path class="cls-1" d="M101.3,22.78h4.79V49.17H101.3Z"/><path class="cls-1" d="M126.14,46.43v2.88a9.35,9.35,0,0,1-2.84.44c-2.09,0-3.06-.9-3.35-2.2a7.09,7.09,0,0,1-5.44,2.3c-3,0-4.75-1.65-4.75-4.14,0-3,2.52-4.93,9.76-6v-.87c0-1.83-.79-2.66-2.31-2.66a5.08,5.08,0,0,0-4.06,2.38l-.33,0L110,36.68a9.23,9.23,0,0,1,7.92-4.36c4.11,0,6.34,2.09,6.34,6.09v7.16c0,.72.18.94.72.94a2.14,2.14,0,0,0,.86-.26Zm-9.93.47a4.82,4.82,0,0,0,3.31-1.47V42c-3.89.72-5.22,1.66-5.22,3.13C114.3,46.25,115,46.9,116.21,46.9Z"/><path class="cls-1" d="M128.19,46.11,131,44.24l.25,0a4.24,4.24,0,0,0,3.6,2.24c1.44,0,2.34-.65,2.34-1.62,0-.8-.57-1.48-3.24-2.42-3.92-1.44-5.07-3-5.07-5.29,0-2.77,2.41-4.86,6.3-4.86,3,0,5.43,1.41,6.4,3.57l-2.66,1.72-.32,0a3.32,3.32,0,0,0-3.1-1.91c-1.29,0-2,.65-2,1.44s.36,1.3,3.27,2.41c3.74,1.48,5,2.92,5,5.37,0,2.88-2.59,5-6.65,5C131.94,49.85,129.53,48.56,128.19,46.11Z"/><path class="cls-1" d="M143.85,46.11l2.81-1.87.25,0a4.24,4.24,0,0,0,3.6,2.24c1.44,0,2.34-.65,2.34-1.62,0-.8-.57-1.48-3.24-2.42-3.92-1.44-5.07-3-5.07-5.29,0-2.77,2.41-4.86,6.3-4.86,3,0,5.43,1.41,6.4,3.57l-2.66,1.72-.32,0a3.32,3.32,0,0,0-3.1-1.91c-1.29,0-2,.65-2,1.44s.36,1.3,3.27,2.41c3.75,1.48,5,2.92,5,5.37,0,2.88-2.59,5-6.65,5C147.6,49.85,145.19,48.56,143.85,46.11Z"/><path class="cls-1" d="M185.5,38.48l7.27-14.8h6.34V49.17h-4.93l.07-19.08h-.07l-8.42,16.52h-.65l-8.39-16.52h-.07l.07,19.08h-5V23.68h6.38l7.3,14.8Z"/><path class="cls-1" d="M208,41.86v.22a3.92,3.92,0,0,0,4.07,4.17A4.33,4.33,0,0,0,215.82,44l.28-.11,3.78,1.47c-1.51,2.88-4.21,4.5-7.95,4.5-5.37,0-8.82-3.67-8.82-8.74a8.37,8.37,0,0,1,8.71-8.79c5,0,8.5,3.39,8.5,8.82a5.28,5.28,0,0,1,0,.72Zm.08-2.52h7.45a3.48,3.48,0,0,0-3.64-3.56A3.72,3.72,0,0,0,208.08,39.34Z"/><path class="cls-1" d="M223.09,41.07c0-5.29,3.24-8.75,7.27-8.75a6.55,6.55,0,0,1,5.69,3.35c0-1.55-.07-3.38-.07-5.22V22.78h4.78V49.17h-4.6V46.54a6.87,6.87,0,0,1-5.94,3.31C226,49.85,223.09,46.51,223.09,41.07Zm13,0c0-2.74-1.76-4.75-4.21-4.75s-4,1.83-4,4.75,1.51,4.68,3.92,4.68C234.39,45.79,236.12,43.91,236.12,41.11Z"/><path class="cls-1" d="M245.09,26.1A2.74,2.74,0,0,1,248,23.36a2.76,2.76,0,1,1-2.95,2.74Zm.54,6.91h4.78V49.17h-4.78Z"/><path class="cls-1" d="M254.16,41.11a8.4,8.4,0,0,1,8.71-8.79,8.63,8.63,0,0,1,7.88,4.43l-3.56,2.09-.33-.07c-1.11-1.8-2.3-2.49-3.88-2.49-2.31,0-4.07,1.8-4.07,4.79s1.73,4.79,4.1,4.79a4.24,4.24,0,0,0,3.93-2.49l.32-.07,3.53,2.05a8.72,8.72,0,0,1-8,4.5C257.54,49.85,254.16,46.25,254.16,41.11Z"/><path class="cls-1" d="M289.72,46.43v2.88a9.3,9.3,0,0,1-2.84.44c-2.09,0-3.06-.9-3.35-2.2a7.07,7.07,0,0,1-5.43,2.3c-3,0-4.76-1.65-4.76-4.14,0-3,2.52-4.93,9.76-6v-.87c0-1.83-.79-2.66-2.3-2.66a5.08,5.08,0,0,0-4.07,2.38l-.33,0-2.8-1.94a9.22,9.22,0,0,1,7.92-4.36c4.1,0,6.33,2.09,6.33,6.09v7.16c0,.72.18.94.72.94a2.14,2.14,0,0,0,.86-.26Zm-9.93.47a4.78,4.78,0,0,0,3.31-1.47V42c-3.89.72-5.22,1.66-5.22,3.13C277.88,46.25,278.53,46.9,279.79,46.9Z"/><path class="cls-1" d="M293,22.78h4.79V49.17H293Z"/></g></g></svg>